<?xml version="1.0" encoding="UTF-8" standalone="no"?>
<!DOCTYPE svg PUBLIC "-//W3C//DTD SVG 1.1//EN"
 "http://www.w3.org/Graphics/SVG/1.1/DTD/svg11.dtd">
<!-- Generated by graphviz version 2.43.0 (0)
 -->
<!-- Title: RelayIR Pages: 1 -->
<svg width="309pt" height="945pt"
 viewBox="0.00 0.00 309.23 945.32" xmlns="http://www.w3.org/2000/svg" xmlns:xlink="http://www.w3.org/1999/xlink">
<g id="graph0" class="graph" transform="scale(1 1) rotate(0) translate(4 941.32)">
<title>RelayIR</title>
<polygon fill="white" stroke="transparent" points="-4,4 -4,-941.32 305.23,-941.32 305.23,4 -4,4"/>
<!-- %3 -->
<g id="node1" class="node">
<title>%3</title>
<ellipse fill="#fbed8a" stroke="#fbed8a" cx="150.61" cy="-851.53" rx="79.81" ry="16.03"/>
<text text-anchor="middle" x="150.61" y="-847.83" font-family="Times,serif" font-size="14.00">DLA.quantize</text>
</g>
<!-- %7 -->
<g id="node3" class="node">
<title>%7</title>
<ellipse fill="#9ab8cf" stroke="#9ab8cf" cx="150.61" cy="-768.01" rx="150.73" ry="16.03"/>
<text text-anchor="middle" x="150.61" y="-764.31" font-family="Times,serif" font-size="14.00">DLA.qconv2d_relu_maxpool</text>
</g>
<!-- %3&#45;&gt;%7 -->
<g id="edge2" class="edge">
<title>%7&#45;&gt;%7</title>
<path fill="none" stroke="black" d="M150.61,-835.2C150.61,-823.7 150.61,-807.7 150.61,-794.31"/>
<polygon fill="black" stroke="black" points="154.11,-794.27 150.61,-784.27 147.11,-794.27 154.11,-794.27"/>
<text text-anchor="middle" x="196.61" y="-806.07" font-family="Times,serif" font-size="14.00">(1, 3, 32, 32)</text>
</g>
<!-- %5 -->
<g id="node2" class="node">
<title>%5</title>
<ellipse fill="none" stroke="white" cx="150.61" cy="-921.06" rx="48.17" ry="16.03"/>
<text text-anchor="middle" x="150.61" y="-917.36" font-family="Times,serif" font-size="14.00">%input</text>
</g>
<!-- %5&#45;&gt;%3 -->
<g id="edge1" class="edge">
<title>%3&#45;&gt;%3</title>
<path fill="none" stroke="black" d="M150.61,-904.74C150.61,-896.99 150.61,-887.38 150.61,-878.52"/>
<polygon fill="black" stroke="black" points="154.11,-878.26 150.61,-868.26 147.11,-878.26 154.11,-878.26"/>
</g>
<!-- %9 -->
<g id="node4" class="node">
<title>%9</title>
<ellipse fill="#9ab8cf" stroke="#9ab8cf" cx="150.61" cy="-684.48" rx="150.73" ry="16.03"/>
<text text-anchor="middle" x="150.61" y="-680.78" font-family="Times,serif" font-size="14.00">DLA.qconv2d_relu_maxpool</text>
</g>
<!-- %7&#45;&gt;%9 -->
<g id="edge3" class="edge">
<title>%9&#45;&gt;%9</title>
<path fill="none" stroke="black" d="M150.61,-751.67C150.61,-740.17 150.61,-724.17 150.61,-710.79"/>
<polygon fill="black" stroke="black" points="154.11,-710.74 150.61,-700.74 147.11,-710.74 154.11,-710.74"/>
<text text-anchor="middle" x="201.11" y="-722.54" font-family="Times,serif" font-size="14.00">(1, 64, 16, 16)</text>
</g>
<!-- %11 -->
<g id="node5" class="node">
<title>%11</title>
<ellipse fill="#f8a9ce" stroke="#f8a9ce" cx="150.61" cy="-600.95" rx="103.48" ry="16.03"/>
<text text-anchor="middle" x="150.61" y="-597.25" font-family="Times,serif" font-size="14.00">DLA.qconv2d_relu</text>
</g>
<!-- %9&#45;&gt;%11 -->
<g id="edge4" class="edge">
<title>%11&#45;&gt;%11</title>
<path fill="none" stroke="black" d="M150.61,-668.14C150.61,-656.64 150.61,-640.65 150.61,-627.26"/>
<polygon fill="black" stroke="black" points="154.11,-627.22 150.61,-617.22 147.11,-627.22 154.11,-627.22"/>
<text text-anchor="middle" x="196.61" y="-639.02" font-family="Times,serif" font-size="14.00">(1, 192, 8, 8)</text>
</g>
<!-- %13 -->
<g id="node6" class="node">
<title>%13</title>
<ellipse fill="#f8a9ce" stroke="#f8a9ce" cx="150.61" cy="-517.42" rx="103.48" ry="16.03"/>
<text text-anchor="middle" x="150.61" y="-513.72" font-family="Times,serif" font-size="14.00">DLA.qconv2d_relu</text>
</g>
<!-- %11&#45;&gt;%13 -->
<g id="edge5" class="edge">
<title>%13&#45;&gt;%13</title>
<path fill="none" stroke="black" d="M150.61,-584.62C150.61,-573.12 150.61,-557.12 150.61,-543.73"/>
<polygon fill="black" stroke="black" points="154.11,-543.69 150.61,-533.69 147.11,-543.69 154.11,-543.69"/>
<text text-anchor="middle" x="196.61" y="-555.49" font-family="Times,serif" font-size="14.00">(1, 384, 8, 8)</text>
</g>
<!-- %15 -->
<g id="node7" class="node">
<title>%15</title>
<ellipse fill="#9ab8cf" stroke="#9ab8cf" cx="150.61" cy="-433.9" rx="150.73" ry="16.03"/>
<text text-anchor="middle" x="150.61" y="-430.2" font-family="Times,serif" font-size="14.00">DLA.qconv2d_relu_maxpool</text>
</g>
<!-- %13&#45;&gt;%15 -->
<g id="edge6" class="edge">
<title>%15&#45;&gt;%15</title>
<path fill="none" stroke="black" d="M150.61,-501.09C150.61,-489.59 150.61,-473.59 150.61,-460.2"/>
<polygon fill="black" stroke="black" points="154.11,-460.16 150.61,-450.16 147.11,-460.16 154.11,-460.16"/>
<text text-anchor="middle" x="196.61" y="-471.96" font-family="Times,serif" font-size="14.00">(1, 256, 8, 8)</text>
</g>
<!-- %17 -->
<g id="node8" class="node">
<title>%17</title>
<ellipse fill="#adbce9" stroke="#adbce9" cx="150.61" cy="-350.37" rx="69.09" ry="16.03"/>
<text text-anchor="middle" x="150.61" y="-346.67" font-family="Times,serif" font-size="14.00">DLA.flatten</text>
</g>
<!-- %15&#45;&gt;%17 -->
<g id="edge7" class="edge">
<title>%17&#45;&gt;%17</title>
<path fill="none" stroke="black" d="M150.61,-417.56C150.61,-406.06 150.61,-390.06 150.61,-376.68"/>
<polygon fill="black" stroke="black" points="154.11,-376.64 150.61,-366.64 147.11,-376.64 154.11,-376.64"/>
<text text-anchor="middle" x="196.61" y="-388.43" font-family="Times,serif" font-size="14.00">(1, 256, 4, 4)</text>
</g>
<!-- %19 -->
<g id="node9" class="node">
<title>%19</title>
<ellipse fill="#9ce8ab" stroke="#9ce8ab" cx="150.61" cy="-266.84" rx="96.75" ry="16.03"/>
<text text-anchor="middle" x="150.61" y="-263.14" font-family="Times,serif" font-size="14.00">DLA.qlinear_relu</text>
</g>
<!-- %17&#45;&gt;%19 -->
<g id="edge8" class="edge">
<title>%19&#45;&gt;%19</title>
<path fill="none" stroke="black" d="M150.61,-334.04C150.61,-322.54 150.61,-306.54 150.61,-293.15"/>
<polygon fill="black" stroke="black" points="154.11,-293.11 150.61,-283.11 147.11,-293.11 154.11,-293.11"/>
<text text-anchor="middle" x="183.11" y="-304.91" font-family="Times,serif" font-size="14.00">(1, 4096)</text>
</g>
<!-- %21 -->
<g id="node10" class="node">
<title>%21</title>
<ellipse fill="#9ce8ab" stroke="#9ce8ab" cx="150.61" cy="-183.32" rx="96.75" ry="16.03"/>
<text text-anchor="middle" x="150.61" y="-179.62" font-family="Times,serif" font-size="14.00">DLA.qlinear_relu</text>
</g>
<!-- %19&#45;&gt;%21 -->
<g id="edge9" class="edge">
<title>%21&#45;&gt;%21</title>
<path fill="none" stroke="black" d="M150.61,-250.51C150.61,-239.01 150.61,-223.01 150.61,-209.62"/>
<polygon fill="black" stroke="black" points="154.11,-209.58 150.61,-199.58 147.11,-209.58 154.11,-209.58"/>
<text text-anchor="middle" x="178.61" y="-221.38" font-family="Times,serif" font-size="14.00">(1, 256)</text>
</g>
<!-- %23 -->
<g id="node11" class="node">
<title>%23</title>
<ellipse fill="#cdb9a8" stroke="#cdb9a8" cx="150.61" cy="-99.79" rx="71.34" ry="16.03"/>
<text text-anchor="middle" x="150.61" y="-96.09" font-family="Times,serif" font-size="14.00">DLA.qlinear</text>
</g>
<!-- %21&#45;&gt;%23 -->
<g id="edge10" class="edge">
<title>%23&#45;&gt;%23</title>
<path fill="none" stroke="black" d="M150.61,-166.98C150.61,-155.48 150.61,-139.48 150.61,-126.1"/>
<polygon fill="black" stroke="black" points="154.11,-126.06 150.61,-116.06 147.11,-126.06 154.11,-126.06"/>
<text text-anchor="middle" x="178.61" y="-137.85" font-family="Times,serif" font-size="14.00">(1, 128)</text>
</g>
<!-- } -->
<g id="node12" class="node">
<title>}</title>
<ellipse fill="#bf9ac8" stroke="#bf9ac8" cx="150.61" cy="-16.26" rx="91.85" ry="16.03"/>
<text text-anchor="middle" x="150.61" y="-12.56" font-family="Times,serif" font-size="14.00">DLA.dequantize</text>
</g>
<!-- %23&#45;&gt;} -->
<g id="edge11" class="edge">
<title>%23&#45;&gt;}</title>
<path fill="none" stroke="black" d="M150.61,-83.46C150.61,-71.95 150.61,-55.96 150.61,-42.57"/>
<polygon fill="black" stroke="black" points="154.11,-42.53 150.61,-32.53 147.11,-42.53 154.11,-42.53"/>
<text text-anchor="middle" x="174.11" y="-54.33" font-family="Times,serif" font-size="14.00">(1, 10)</text>
</g>
</g>
</svg>
